<svg xmlns="http://www.w3.org/2000/svg" xmlns:xlink="http://www.w3.org/1999/xlink" width="131" height="56" viewBox="0 0 131 56">
  <defs>
    <clipPath id="clip-path">
      <rect id="Rectangle_12" data-name="Rectangle 12" width="131" height="56" transform="translate(742 638)" fill="#fff" stroke="#707070" stroke-width="1"/>
    </clipPath>
  </defs>
  <g id="menu" transform="translate(-742 -638)" clip-path="url(#clip-path)">
    <g id="undraw_barbecue_3x93" transform="translate(776.755 638)">
      <ellipse id="Ellipse_28" data-name="Ellipse 28" cx="30.559" cy="2.006" rx="30.559" ry="2.006" transform="translate(0 51.988)" fill="#3f3d56"/>
      <rect id="Rectangle_13" data-name="Rectangle 13" width="1.024" height="0.585" transform="translate(30.047 32.096)" fill="#3f3d56"/>
      <rect id="Rectangle_14" data-name="Rectangle 14" width="1.024" height="0.585" transform="translate(32.096 32.096)" fill="#3f3d56"/>
      <rect id="Rectangle_15" data-name="Rectangle 15" width="1.024" height="0.585" transform="translate(34.145 32.096)" fill="#3f3d56"/>
      <rect id="Rectangle_16" data-name="Rectangle 16" width="1.024" height="0.585" transform="translate(36.193 32.096)" fill="#3f3d56"/>
      <rect id="Rectangle_17" data-name="Rectangle 17" width="1.024" height="0.585" transform="translate(38.242 32.096)" fill="#3f3d56"/>
      <rect id="Rectangle_18" data-name="Rectangle 18" width="1.024" height="0.585" transform="translate(40.291 32.096)" fill="#3f3d56"/>
      <rect id="Rectangle_19" data-name="Rectangle 19" width="1.024" height="0.585" transform="translate(42.339 32.096)" fill="#3f3d56"/>
      <rect id="Rectangle_20" data-name="Rectangle 20" width="1.024" height="0.585" transform="translate(44.388 32.096)" fill="#3f3d56"/>
      <rect id="Rectangle_21" data-name="Rectangle 21" width="1.024" height="0.585" transform="translate(46.437 32.096)" fill="#3f3d56"/>
      <rect id="Rectangle_22" data-name="Rectangle 22" width="1.024" height="0.585" transform="translate(48.485 32.096)" fill="#3f3d56"/>
      <rect id="Rectangle_23" data-name="Rectangle 23" width="1.024" height="0.585" transform="translate(50.534 32.096)" fill="#3f3d56"/>
      <path id="Path_242" data-name="Path 242" d="M127.973,89.429a12.295,12.295,0,0,1-24.584,0Z" transform="translate(-74.067 -56.957)" fill="#3f3d56"/>
      <path id="Path_243" data-name="Path 243" d="M144.855,63.213l-7.819-22.821a12.522,12.522,0,0,1,9.387.632,12.108,12.108,0,0,1,6.176,6.95c.083.242.158.485.225.728A11.994,11.994,0,0,1,144.855,63.213Z" transform="translate(-91.543 -30.665)" fill="#3f3d56"/>
      <ellipse id="Ellipse_29" data-name="Ellipse 29" cx="1.537" cy="1.504" rx="1.537" ry="1.504" transform="translate(52.07 31.343)" fill="#3f3d56"/>
      <path id="Path_244" data-name="Path 244" d="M120.955,96.09a.418.418,0,1,0,0,.836H128.3a.418.418,0,1,0,0-.836Z" transform="translate(-82.969 -60.484)" fill="#6c63ff"/>
      <path id="Path_245" data-name="Path 245" d="M100.207,101.577l-1.528.055-5.507-11.6,1.393-.634Z" transform="translate(-48.393 -47.332)" fill="#3f3d56"/>
      <path id="Path_246" data-name="Path 246" d="M65.361,101.577l1.528.055,5.507-11.6L71,89.4Z" transform="translate(-33.948 -47.332)" fill="#3f3d56"/>
      <rect id="Rectangle_24" data-name="Rectangle 24" width="12.633" height="0.836" transform="translate(35.34 47.558)" fill="#3f3d56"/>
      <path id="Path_247" data-name="Path 247" d="M137.271,40.192a.387.387,0,0,0-.309.152.37.37,0,0,0-.059.334l.324,1.039a.386.386,0,0,0,.48.25.375.375,0,0,0,.255-.47l-.324-1.039A.384.384,0,0,0,137.271,40.192Z" transform="translate(-91.466 -30.891)" fill="#6c63ff"/>
      <path id="Path_248" data-name="Path 248" d="M101.908,89.873a.376.376,0,1,0,0,.752h1.11a.376.376,0,1,0,0-.752Z" transform="translate(-73.099 -57.192)" fill="#6c63ff"/>
      <path id="Path_249" data-name="Path 249" d="M115.143,84.012h-4.61c-.029,0-.057,0-.085,0a1.168,1.168,0,0,0,0,2.334c.029,0,.058,0,.088,0h4.61a1.17,1.17,0,1,0,0-2.34Z" transform="translate(-77.158 -54.09)" fill="#ff6584"/>
      <path id="Path_250" data-name="Path 250" d="M110.715,86.26c.785-.1,1.4-1.069,1.4-2.247h-.171c0,1.153-.613,2.09-1.366,2.09V86.2Z" transform="translate(-77.803 -54.09)" opacity="0.2"/>
      <path id="Path_251" data-name="Path 251" d="M114.312,86.269V86.1c.753,0,1.366-.937,1.366-2.09h.171C115.849,85.256,115.159,86.269,114.312,86.269Z" transform="translate(-79.741 -54.09)" opacity="0.2"/>
      <path id="Path_252" data-name="Path 252" d="M118.042,86.269V86.1c.753,0,1.366-.937,1.366-2.09h.171C119.578,85.256,118.889,86.269,118.042,86.269Z" transform="translate(-81.678 -54.09)" opacity="0.2"/>
      <path id="Path_253" data-name="Path 253" d="M132.549,84.012h-4.61c-.029,0-.057,0-.085,0a1.168,1.168,0,0,0,0,2.334c.029,0,.058,0,.088,0h4.61a1.17,1.17,0,1,0,0-2.34Z" transform="translate(-86.198 -54.09)" fill="#ff6584"/>
      <path id="Path_254" data-name="Path 254" d="M128.121,86.26c.785-.1,1.4-1.069,1.4-2.247h-.171c0,1.153-.613,2.09-1.366,2.09V86.2Z" transform="translate(-86.844 -54.09)" opacity="0.2"/>
      <path id="Path_255" data-name="Path 255" d="M131.718,86.269V86.1c.753,0,1.366-.937,1.366-2.09h.171C133.254,85.256,132.565,86.269,131.718,86.269Z" transform="translate(-88.781 -54.09)" opacity="0.2"/>
      <path id="Path_256" data-name="Path 256" d="M135.448,86.269V86.1c.753,0,1.366-.937,1.366-2.09h.171C136.984,85.256,136.295,86.269,135.448,86.269Z" transform="translate(-90.718 -54.09)" opacity="0.2"/>
      <path id="Path_257" data-name="Path 257" d="M118.752,60a1.274,1.274,0,0,0-1.652.595,2.051,2.051,0,0,0,.364,2.1,9.775,9.775,0,0,1,1.342,1.822,3.011,3.011,0,0,1-1.213,3.75.252.252,0,0,0,.258.433,3.512,3.512,0,0,0,1.3-4.646,4.97,4.97,0,0,0-.666-.922,3.192,3.192,0,0,1-1.032-1.8,1.11,1.11,0,0,1,.02-.277.961.961,0,0,1,.059-.186.911.911,0,0,1,.269-.329.827.827,0,0,1,.366-.162.56.56,0,0,1,.328.052C118.784,60.583,119.043,60.15,118.752,60Z" transform="translate(-81.104 -41.311)" fill="#e6e6e6"/>
      <path id="Path_258" data-name="Path 258" d="M134.857,66.5a1.517,1.517,0,0,0-1.494.34.877.877,0,0,0-.243.776,1.54,1.54,0,0,0,.457.791,11.749,11.749,0,0,1,1.347,1.189,1.475,1.475,0,0,1,.282.708,1.313,1.313,0,0,1-.125.669,2.5,2.5,0,0,1-1.321,1.1.249.249,0,0,0-.092.343.266.266,0,0,0,.35.09,2.312,2.312,0,0,0,1.653-2.5,2.62,2.62,0,0,0-1.071-1.4,5.971,5.971,0,0,1-.674-.563.868.868,0,0,1-.308-.642.353.353,0,0,1,.115-.211,1,1,0,0,1,.254-.165.973.973,0,0,1,.734-.037.259.259,0,0,0,.315-.175.255.255,0,0,0-.179-.308Z" transform="translate(-89.502 -44.782)" fill="#e6e6e6"/>
      <path id="Path_259" data-name="Path 259" d="M126.614,51.189a.889.889,0,0,0-.546-.206.978.978,0,0,0-.532.168,1.79,1.79,0,0,0-.7,1.033,4.005,4.005,0,0,0,.548,2.872c.237.432.513.842.752,1.274a5.584,5.584,0,0,1,.526,1.307,6.19,6.19,0,0,1,.063,2.852,4.646,4.646,0,0,1-1.37,2.516.247.247,0,0,0,0,.355.26.26,0,0,0,.362,0,4.89,4.89,0,0,0,1.349-2.174,6.534,6.534,0,0,0,.249-2.833,6.38,6.38,0,0,0-.328-1.389,7.6,7.6,0,0,0-.651-1.3,5.892,5.892,0,0,1-1.064-2.552,1.887,1.887,0,0,1,.32-1.328c-.016.021.013-.015.013-.015q.027-.031.056-.061a1.122,1.122,0,0,1,.118-.107c-.009.007-.032.022.01-.006.021-.014.041-.027.063-.04l.053-.028.032-.015q-.037.016,0,0c.02-.006.119-.027.064-.02l.055,0c.008,0,.077,0,.043,0s.031.007.032.007a.517.517,0,0,1,.065.02c-.053-.021.087.057.055.032a.269.269,0,0,0,.362,0,.249.249,0,0,0,0-.355Z" transform="translate(-85.158 -36.604)" fill="#e6e6e6"/>
      <path id="Path_260" data-name="Path 260" d="M39.423,93.2l-1.931.5L33.946,77.648l3.98-.347Z" transform="translate(-17.631 -40.926)" fill="#ffb9b9"/>
      <path id="Path_261" data-name="Path 261" d="M22.952,93.557l-1.975.292L19.241,77.516l3.994.08Z" transform="translate(-9.993 -41.04)" fill="#ffb9b9"/>
      <path id="Path_262" data-name="Path 262" d="M62.371,66.406l.182,3.333a.846.846,0,0,1-.266.662.885.885,0,0,1-.686.236h0a.865.865,0,0,1-.792-.778l-.33-3.685-2.6-8.642.079-5.556,3.073.154Z" transform="translate(-50.43 -37.13)" fill="#ffb9b9"/>
      <path id="Path_263" data-name="Path 263" d="M64.878,89.6a11.186,11.186,0,0,0-5.359-.309,66.83,66.83,0,0,0,.315-8.951H70.315Z" transform="translate(-51.282 -52.147)" fill="#2f2e41"/>
      <path id="Path_264" data-name="Path 264" d="M75.272,89.612A17.375,17.375,0,0,1,68.732,91l-3.31-10.34,8.117-.154Z" transform="translate(-54.348 -52.234)" fill="#2f2e41"/>
      <path id="Path_265" data-name="Path 265" d="M87.5,131.117l-5.71.207c-.731.027-.77-.588-.632-1.292l.676-1.89c1.522,1.46,1.665,1.542,2.318-.535l1.991,1.54,1.474.247a.874.874,0,0,1,.737.857h0A.877.877,0,0,1,87.5,131.117Z" transform="translate(-62.487 -77.169)" fill="#2f2e41"/>
      <path id="Path_266" data-name="Path 266" d="M69.5,131.117l-5.71.207c-.731.027-.77-.588-.632-1.292l.676-1.89c1.522,1.46,1.665,1.542,2.318-.535l1.991,1.54,1.474.247a.874.874,0,0,1,.737.857h0A.877.877,0,0,1,69.5,131.117Z" transform="translate(-53.141 -77.169)" fill="#2f2e41"/>
      <ellipse id="Ellipse_30" data-name="Ellipse 30" cx="3.073" cy="3.009" rx="3.073" ry="3.009" transform="translate(14.621 0.65)" fill="#ffb9b9"/>
      <path id="Path_267" data-name="Path 267" d="M29.619,13.884,25.994,12.8l2.443-3.549,2.758,1.157Z" transform="translate(-13.501 -4.901)" fill="#ffb9b9"/>
      <path id="Path_268" data-name="Path 268" d="M70.043,57.776a24.778,24.778,0,0,1-11.427-.463,37.2,37.2,0,0,0-.394-13.735c-.654-3.186,1.071-5.86,3.94-7.176a8.135,8.135,0,0,1,1.91-.421,3.7,3.7,0,0,1,3.994,3.271Z" transform="translate(-50.536 -28.654)" fill="#6c63ff"/>
      <path id="Path_269" data-name="Path 269" d="M17.609,30.136l-2.6-.309.788-4.012h1.812Z" transform="translate(-7.795 -13.668)" fill="#6c63ff"/>
      <path id="Path_270" data-name="Path 270" d="M74.928,24.562l-.471-.2a.82.82,0,0,0-.676.011.792.792,0,0,0-.429.511h0L72.7,26.04l-1.634-.253.057-2.457a3.428,3.428,0,0,1,1.494-2.308,3.569,3.569,0,0,1,2.742-.51l.045.01a5.1,5.1,0,0,1,2.374,1.352l1.007,1.122a.381.381,0,0,1,.072.4.4.4,0,0,1-.325.245l-1.378.149Z" transform="translate(-57.277 -20.427)" fill="#2f2e41"/>
      <path id="Path_271" data-name="Path 271" d="M87.454,70.81l-1.765,1.516a.13.13,0,0,1-.181-.012.124.124,0,0,1,.012-.177l1.765-1.516-.338-.377L85.182,71.76A.13.13,0,0,1,85,71.749a.124.124,0,0,1,.012-.177l1.765-1.516-.338-.377-1.765,1.516a.13.13,0,0,1-.181-.012.124.124,0,0,1,.012-.177l1.765-1.516-.422-.471-2.494,2.142a1.247,1.247,0,0,0-.275,1.57L75.551,79.2l.675.754,7.525-6.462a1.272,1.272,0,0,0,1.6-.04l2.524-2.168Z" transform="translate(-59.609 -46.152)" fill="#e6e6e6"/>
      <path id="Path_272" data-name="Path 272" d="M77.62,66.406,77.8,69.74a.846.846,0,0,1-.266.662.885.885,0,0,1-.686.236h0a.865.865,0,0,1-.792-.778l-.33-3.685-2.6-8.642.079-5.556,3.073.154Z" transform="translate(-58.35 -37.13)" fill="#ffb9b9"/>
      <path id="Path_273" data-name="Path 273" d="M76.347,46.73a3.533,3.533,0,0,0-3.546-.54V42.043a1.892,1.892,0,0,1,1.912-1.872h0a1.769,1.769,0,0,1,1.252.516,1.7,1.7,0,0,1,.5,1.238Z" transform="translate(-58.18 -30.88)" fill="#6c63ff"/>
    </g>
  </g>
</svg>
